
  <svg version="1.1" id="Layer_1" xmlns="http://www.w3.org/2000/svg" xmlns:xlink="http://www.w3.org/1999/xlink" x="0px" y="0px"
	 width="1000px" height="325.634px" viewBox="0 0 1000 325.634" enable-background="new 0 0 1000 325.634" xml:space="preserve">
<g id="F">
	<polygon fill="#C9AD2E" points="70.702,143.09 84.606,151.036 105.43,185.545 91.526,177.601 	"/>
	<polygon fill="#D1B935" points="65.027,196.228 91.526,177.601 105.43,185.545 78.93,204.173 	"/>
	<polygon fill="#C9AD2E" points="65.027,196.228 78.93,204.173 83.531,211.907 77.135,216.295 	"/>
	<polygon fill="#C9AD2E" points="124.939,249.3 111.939,242.703 90.385,206.98 104.289,214.926 	"/>
	<polygon fill="#D1B935" points="124.939,249.3 111.649,258.641 98.65,252.044 111.939,242.703 	"/>
	<polygon fill="#C9AD2E" points="128.083,286.376 115.208,280.131 98.65,252.044 111.649,258.641 	"/>
	<polygon fill="#D1B935" points="128.083,286.376 92.999,311.043 80.123,304.797 115.208,280.131 	"/>
	<polygon fill="#D1B935" points="70.453,288.119 65.495,291.604 50.91,285.606 63.758,276.573 	"/>
	<linearGradient id="SVGID_1_" gradientUnits="userSpaceOnUse" x1="10.7827" y1="223.9434" x2="115.208" y2="223.9434">
		<stop  offset="0" style="stop-color:#F5ED60"/>
		<stop  offset="1" style="stop-color:#F7EF74"/>
	</linearGradient>
	<path fill="url(#SVGID_1_)" d="M80.123,304.797l-16.364-28.224l-12.849,9.033l-20.957-36.142l12.85-9.032l-32.02-55.22
		l59.919-42.123l20.824,34.51l-26.499,18.627l12.108,20.067l13.25-9.315l21.554,35.723l-13.289,9.341l16.558,28.087L80.123,304.797z
		"/>
	<g>
		<linearGradient id="SVGID_2_" gradientUnits="userSpaceOnUse" x1="35.4014" y1="169.7271" x2="102.3525" y2="285.6899">
			<stop  offset="0" style="stop-color:#68120C"/>
			<stop  offset="1" style="stop-color:#D83020"/>
		</linearGradient>
		<polygon fill="url(#SVGID_2_)" points="17.361,186.658 69.201,150.215 84.881,176.201 58.383,194.829 75.634,223.421 
			88.884,214.105 105.294,241.304 92.045,250.617 108.603,278.703 81.701,297.615 65.336,269.394 52.487,278.428 36.531,250.911 
			49.38,241.878 		"/>
	</g>
	<g>
		<linearGradient id="SVGID_3_" gradientUnits="userSpaceOnUse" x1="35.6709" y1="170.2026" x2="102.0762" y2="285.2199">
			<stop  offset="0" style="stop-color:#771915"/>
			<stop  offset="1" style="stop-color:#EE3524"/>
		</linearGradient>
		<polygon fill="url(#SVGID_3_)" points="65.495,268.671 52.646,277.705 37.193,251.057 50.043,242.023 18.023,186.804 
			69.05,150.932 84.212,176.06 57.714,194.688 75.483,224.138 88.733,214.823 104.625,241.163 91.38,250.474 107.938,278.56 
			81.859,296.893 		"/>
	</g>
</g>
<g id="U_1_">
	<linearGradient id="SVGID_4_" gradientUnits="userSpaceOnUse" x1="148.0439" y1="158.686" x2="246.3677" y2="158.686">
		<stop  offset="0" style="stop-color:#C9AD2E"/>
		<stop  offset="0.5" style="stop-color:#D1B935"/>
		<stop  offset="1" style="stop-color:#C9AD2E"/>
	</linearGradient>
	<path fill="url(#SVGID_4_)" d="M190.402,241.771c-28.459,0-41.152-28.868-42.358-31.777c0,0,38.222,16.38,66.436-5.984
		c20.988-16.638-30.82-102.608-30.82-102.608l8.615-25.802l9.468,9.912l37.74,73.494c1.351,2.713,23.826,47.24-20.512,73.803
		C209.043,238.756,199.433,241.771,190.402,241.771z"/>
	<polygon fill="#C9AD2E" points="134.787,107.838 146.498,115.803 185.269,193.063 172.859,190.539 172.303,183.08 	"/>
	<linearGradient id="SVGID_5_" gradientUnits="userSpaceOnUse" x1="142.7109" y1="102.6611" x2="212.4365" y2="223.4294">
		<stop  offset="0" style="stop-color:#F5ED60"/>
		<stop  offset="1" style="stop-color:#F7EF74"/>
	</linearGradient>
	<path fill="url(#SVGID_5_)" d="M179.085,234.819c-29.034,0-41.984-28.867-43.214-31.776l-37.354-74.866l36.27-20.339l37.842,75.897
		c0.096,0.241,2.748,6.718,8.787,6.718c2.358,0,5.088-0.908,8.115-2.699c3.132-1.852,4.937-3.99,5.517-6.533
		c1.037-4.537-2.033-9.219-2.064-9.266l-0.328-0.564l-37.431-75.016l37.049-20.775l37.645,75.444
		c1.377,2.712,23.544,48.249-21.689,74.812C198.103,231.804,188.297,234.819,179.085,234.819z"/>
	<linearGradient id="SVGID_6_" gradientUnits="userSpaceOnUse" x1="145.0972" y1="107.0854" x2="209.8281" y2="219.2028">
		<stop  offset="0" style="stop-color:#68120C"/>
		<stop  offset="1" style="stop-color:#EE3524"/>
		<stop  offset="1" style="stop-color:#C73023"/>
	</linearGradient>
	<path fill="url(#SVGID_6_)" d="M105.073,130.193l27.597-15.476l35.317,70.783c0,0,6.444,16.956,24.072,6.528
		c14.728-8.712,5.039-22.854,5.039-22.854l-35.317-70.781l28.376-15.913l35.317,70.782c0,0,23.063,43.165-19.759,68.312
		c-45.934,26.974-65.327-20.599-65.327-20.599L105.073,130.193z"/>
	<g>
		<linearGradient id="SVGID_7_" gradientUnits="userSpaceOnUse" x1="145.3462" y1="107.5254" x2="209.5737" y2="218.7708">
			<stop  offset="0" style="stop-color:#771915"/>
			<stop  offset="1" style="stop-color:#EE3524"/>
			<stop  offset="1" style="stop-color:#DB3628"/>
		</linearGradient>
		<path fill="url(#SVGID_7_)" d="M179.085,229.354c-26.274,0-38.117-28.281-38.233-28.567l-35.119-70.391l26.724-14.986
			l35.083,70.313c0.019,0.057,3.987,10.195,13.876,10.195c3.35,0,7.017-1.165,10.898-3.46c4.463-2.64,7.183-6.04,8.083-10.107
			c1.53-6.908-2.705-13.195-2.886-13.459l-35.069-70.295l27.503-15.423l35.083,70.312c0.063,0.12,5.731,10.889,6.127,24.553
			c0.364,12.568-3.798,30.248-25.693,43.105C196.186,226.591,187.311,229.354,179.085,229.354z"/>
	</g>
</g>
<g id="T">
	<polygon fill="#C9AD2E" points="318.838,27.769 325.159,39.05 337.101,77.981 330.781,66.699 	"/>
	<polygon fill="#D1B935" points="299.484,77.222 330.781,66.699 337.101,77.981 306.436,88.28 	"/>
	<polygon fill="#C9AD2E" points="328.418,171.544 334.577,180.111 306.436,88.28 299.484,77.222 	"/>
	<polygon fill="#D1B935" points="288.085,185.102 294.244,193.669 334.577,180.111 328.418,171.544 	"/>
	<polygon fill="#D1B935" points="228.1,101.216 237.372,111.496 262.876,102.924 259.15,90.78 	"/>
	<linearGradient id="SVGID_8_" gradientUnits="userSpaceOnUse" x1="266.7148" y1="44.8755" x2="312.2473" y2="177.1114">
		<stop  offset="0" style="stop-color:#F5ED60"/>
		<stop  offset="1" style="stop-color:#F7EF74"/>
	</linearGradient>
	<path fill="url(#SVGID_8_)" d="M288.085,185.102L259.15,90.78l-31.05,10.437l-11.943-38.931l102.681-34.517l11.942,38.931
		l-31.297,10.522l28.934,94.322L288.085,185.102z"/>
	<linearGradient id="SVGID_9_" gradientUnits="userSpaceOnUse" x1="268.3428" y1="49.7383" x2="310.6189" y2="172.5172">
		<stop  offset="0" style="stop-color:#68120C"/>
		<stop  offset="1" style="stop-color:#D83020"/>
	</linearGradient>
	<polygon fill="url(#SVGID_9_)" points="222.323,65.585 315.586,34.234 324.616,63.667 293.318,74.189 322.252,168.512 
		291.337,178.905 262.402,84.583 231.352,95.019 	"/>
	<g>
		<linearGradient id="SVGID_10_" gradientUnits="userSpaceOnUse" x1="268.5063" y1="50.0811" x2="310.4547" y2="171.908">
			<stop  offset="0" style="stop-color:#771915"/>
			<stop  offset="1" style="stop-color:#EE3524"/>
		</linearGradient>
		<polygon fill="url(#SVGID_10_)" points="262.73,83.81 231.679,94.248 222.943,65.77 315.259,34.738 323.995,63.215 
			292.697,73.737 321.632,168.06 291.665,178.133 		"/>
	</g>
</g>
<g id="U">
	<polygon fill="#C9AD2E" points="386.693,19.624 390.376,28.562 399.629,117.293 395.244,109.265 395.771,104.108 	"/>
	<linearGradient id="SVGID_11_" gradientUnits="userSpaceOnUse" x1="360.5527" y1="131.04" x2="463.3867" y2="131.04">
		<stop  offset="0" style="stop-color:#C9AD2E"/>
		<stop  offset="0.5" style="stop-color:#D1B935"/>
		<stop  offset="1" style="stop-color:#C9AD2E"/>
	</linearGradient>
	<path fill="url(#SVGID_11_)" d="M407.778,166.513c-31.008,0-42.749-21.173-47.143-35.499c-1.998-6.513,32.741,20.391,56.375,16.5
		c32.6-5.365,45.098-51.947,45.098-51.947l0.942,8.938c0.227,1.841,2.987,27-12.217,44.908
		C441.2,160.759,426.714,166.513,407.778,166.513z"/>
	<linearGradient id="SVGID_12_" gradientUnits="userSpaceOnUse" x1="398.2002" y1="17.7881" x2="415.2939" y2="157.0053">
		<stop  offset="0" style="stop-color:#F5ED60"/>
		<stop  offset="1" style="stop-color:#F7EF74"/>
	</linearGradient>
	<path fill="url(#SVGID_12_)" d="M405.093,157.575c-46.532,0-51.003-44.809-51.269-48.157l-9.066-84.388l41.936-5.406l9.077,84.485
		c0.25,1.423,2.273,10.95,11.557,10.95c4.667,0,7.996-1.159,9.894-3.444c3.201-3.857,2.066-10.159,2.055-10.223l-0.062-0.414
		l-9.066-84.384l42.882-5.536l9.08,84.51c0.234,1.842,3.082,27-12.603,44.908C439.568,151.821,424.625,157.575,405.093,157.575z"/>
	<linearGradient id="SVGID_13_" gradientUnits="userSpaceOnUse" x1="398.7637" y1="22.7539" x2="414.6429" y2="152.0796">
		<stop  offset="0" style="stop-color:#68120C"/>
		<stop  offset="1" style="stop-color:#D83020"/>
	</linearGradient>
	<path fill="url(#SVGID_13_)" d="M350.214,29.333l32.083-4.135l8.551,79.582c0,0,2.327,15.245,16.479,15.245
		c20.732,0,16.823-19.578,16.823-19.578l-8.547-79.551l33.03-4.265l8.543,79.519c0,0,7.506,56.458-52.084,56.458
		c-43.948,0-46.324-43.655-46.324-43.655L350.214,29.333z"/>
	<g>
		<linearGradient id="SVGID_14_" gradientUnits="userSpaceOnUse" x1="398.9731" y1="23.2544" x2="414.73" y2="151.5836">
			<stop  offset="0" style="stop-color:#771915"/>
			<stop  offset="1" style="stop-color:#EE3524"/>
		</linearGradient>
		<path fill="url(#SVGID_14_)" d="M405.241,152.108c-42.978,0-45.801-42.75-45.825-43.182l-8.505-79.16l31.092-4.007l8.497,79.074
			c0.027,0.179,2.56,15.691,16.976,15.691c6.406,0,11.167-1.844,14.149-5.48c4.849-5.913,3.236-14.339,3.165-14.695l-8.489-79.02
			l32.039-4.136l8.489,79.01c0.033,0.254,3.033,24.329-11.291,40.677C436.683,146.985,423.125,152.108,405.241,152.108z"/>
	</g>
</g>
<g id="R">
	<linearGradient id="SVGID_15_" gradientUnits="userSpaceOnUse" x1="583.9023" y1="64.2827" x2="583.9023" y2="123.0659">
		<stop  offset="0" style="stop-color:#C9AD2E"/>
		<stop  offset="1" style="stop-color:#D1B935"/>
	</linearGradient>
	<path fill="url(#SVGID_15_)" d="M601.056,64.283c0,0,1.595,19.355-9.431,37.304c-8.695,14.154-21.729,21.479-21.729,21.479
		l-3.228-7.697c0,0,18.248-13.16,23.338-22.719C595.097,83.091,601.056,64.283,601.056,64.283z"/>
	<linearGradient id="SVGID_16_" gradientUnits="userSpaceOnUse" x1="530.4111" y1="60.1436" x2="563.8271" y2="60.1436">
		<stop  offset="0" style="stop-color:#D1B935"/>
		<stop  offset="1" style="stop-color:#C9AD2E"/>
	</linearGradient>
	<path fill="url(#SVGID_16_)" d="M530.91,46.942l8.01,0.042c0,0,18.643-1.261,23.422,10.035c3.77,8.909-0.826,16.327-0.826,16.327
		s-0.061-5.421-4.28-9.521c-6.707-6.517-19.33-5.875-19.33-5.875h-7.494L530.91,46.942z"/>
	<polygon fill="#D1B935" points="540.815,151.404 584.088,152.608 582.21,161.501 538.938,160.297 	"/>
	<polygon fill="#C9AD2E" points="532.787,133.823 540.815,151.404 538.938,160.297 532.267,145.721 	"/>
	<polygon fill="#D1B935" points="532.027,151.16 532.135,160.053 488.74,158.843 488.632,149.951 	"/>
	<polygon fill="#D1B935" points="472.992,115.615 490.115,116.091 489.641,126.927 474.094,126.494 	"/>
	<linearGradient id="SVGID_17_" gradientUnits="userSpaceOnUse" x1="537.1982" y1="10" x2="537.1982" y2="152.6084">
		<stop  offset="0" style="stop-color:#F5ED60"/>
		<stop  offset="1" style="stop-color:#F7EF74"/>
	</linearGradient>
	<path fill="url(#SVGID_17_)" d="M584.088,152.608l-43.272-1.204l-8.028-17.581l-0.76,17.336l-43.396-1.209l1.483-33.86
		l-17.123-0.476l1.818-41.5l17.124,0.477L494.764,10l72.414,1.894l1.019,0.531c1.356,0.707,33.208,17.704,33.208,51.486
		c0,30.502-23.369,46.659-33.508,52.234L584.088,152.608z M543.677,80.896c0.001,0,0.562,0.049,1.475,0.049
		c2.495,0,7.288-0.354,11.331-2.721c4.666-2.732,6.936-7.415,6.936-14.313c0-14.988-15.496-16.294-22.372-16.606
		c-0.642-0.029-9.905-0.166-9.905-0.166l-1.46,33.354L543.677,80.896L543.677,80.896z"/>
	<linearGradient id="SVGID_18_" gradientUnits="userSpaceOnUse" x1="537.3066" y1="15.0918" x2="537.3066" y2="147.4253">
		<stop  offset="0" style="stop-color:#68120C"/>
		<stop  offset="1" style="stop-color:#D83020"/>
	</linearGradient>
	<path fill="url(#SVGID_18_)" d="M499.512,15.092l66.388,1.736c0,0,30.538,15.922,30.538,47.083
		c0,35.256-35.008,49.906-35.008,49.906l14.923,33.608l-32.307-0.899l-15.319-33.54l-1.448,33.073l-33.465-0.931l1.484-33.86
		l-17.124-0.477l1.383-31.577l17.124,0.477L499.512,15.092z M524.498,85.316l18.684,0.521c0,0,25.201,2.53,25.201-21.926
		c0-21.85-28.74-21.539-28.74-21.539l-13.25-0.311L524.498,85.316z"/>
	<g>
		<linearGradient id="SVGID_19_" gradientUnits="userSpaceOnUse" x1="537.3184" y1="15.6499" x2="537.3184" y2="146.9492">
			<stop  offset="0" style="stop-color:#771915"/>
			<stop  offset="1" style="stop-color:#EE3524"/>
		</linearGradient>
		<path fill="url(#SVGID_19_)" d="M544.373,146.081l-15.189-33.256l-0.955,0.186l-1.426,32.581l-32.466-0.904l1.484-33.86
			l-17.124-0.476l1.339-30.577l17.124,0.477l2.83-64.601l65.778,1.721c1.912,1.042,30.171,16.979,30.171,46.586
			c0,34.525-34.353,49.3-34.7,49.445l-0.471,0.197l14.808,33.351L544.373,146.081z M523.978,85.848l19.191,0.535
			c-0.005,0,0.744,0.074,1.981,0.074h0.001c3.051,0,8.937-0.451,14.092-3.469c6.396-3.746,9.64-10.149,9.64-19.031
			c0-21.79-27.965-22.04-29.155-22.04l-13.812-0.32L523.978,85.848z"/>
	</g>
</g>
<g id="A">
	<polygon fill="#D1B935" points="604.562,154.81 646.315,165.548 641.35,174.486 600.379,163.949 	"/>
	<polygon fill="#D1B935" points="653.314,155.147 648.166,162.796 652.049,184.578 657.015,175.639 	"/>
	<polygon fill="#D1B935" points="666.22,180.886 671.186,171.948 713.839,182.913 706.061,191.128 	"/>
	<polygon fill="#CCAF2F" points="670.535,160.247 671.186,171.948 666.22,180.886 665.736,167.261 652.049,184.578 657.015,175.639 
			"/>
	<polygon fill="#CCAF2F" points="672.382,116.303 673.546,133.66 667.872,132.202 667.31,123.963 	"/>
	<linearGradient id="SVGID_20_" gradientUnits="userSpaceOnUse" x1="685.0273" y1="22.3848" x2="657.9747" y2="175.808">
		<stop  offset="0" style="stop-color:#F5ED60"/>
		<stop  offset="1" style="stop-color:#F7EF74"/>
	</linearGradient>
	<path fill="url(#SVGID_20_)" d="M713.839,182.913l-42.653-10.965l-0.65-11.701l-13.521,15.392l-3.7-20.492l-6.999,10.401
		l-41.754-10.739l91.165-130.538L713.839,182.913z M662.729,130.881l10.816,2.779l-1.164-17.357L662.729,130.881z"/>
	<linearGradient id="SVGID_21_" gradientUnits="userSpaceOnUse" x1="682.9463" y1="36.2319" x2="659.7501" y2="167.7841">
		<stop  offset="0" style="stop-color:#68120C"/>
		<stop  offset="1" style="stop-color:#D83020"/>
	</linearGradient>
	<path fill="url(#SVGID_21_)" d="M612.732,151.784L692.28,37.878l15.806,138.429l-32.145-8.264l-1.123-20.199l-14.744,16.788
		l-4.046-22.41l-11.874,17.643L612.732,151.784z M678.961,140.178l-2.608-38.867l-21.613,32.645L678.961,140.178z"/>
	<g>
		<linearGradient id="SVGID_22_" gradientUnits="userSpaceOnUse" x1="682.7354" y1="37.626" x2="659.8801" y2="167.2446">
			<stop  offset="0" style="stop-color:#771915"/>
			<stop  offset="1" style="stop-color:#EE3524"/>
		</linearGradient>
		<path fill="url(#SVGID_22_)" d="M676.42,167.65l-1.17-21.055l-14.868,16.928l-4.08-22.603l-12.365,18.372l-30.382-7.813
			l78.379-112.231l15.573,136.394L676.42,167.65z M653.935,134.265l25.571,6.569l-2.754-41.033L653.935,134.265z"/>
	</g>
</g>
<g id="M">
	<polygon fill="#D1B935" points="862.227,240.924 850.307,248.008 811.855,231.797 823.773,224.713 	"/>
	<polygon fill="#C9AD2E" points="822.424,197.179 834.821,187.445 823.773,224.713 811.855,231.797 	"/>
	<polygon fill="#C9AD2E" points="785.639,225.547 795.853,218.043 788.412,167.469 779.758,185.583 	"/>
	<polygon fill="#D1B935" points="771.576,202.708 761.361,210.212 723.4,194.512 731.981,186.015 	"/>
	<polygon fill="#C9AD2E" points="796.102,62.477 804.681,53.98 731.981,186.015 723.4,194.512 	"/>
	<linearGradient id="SVGID_23_" gradientUnits="userSpaceOnUse" x1="849.249" y1="70.2017" x2="795.4874" y2="217.9105">
		<stop  offset="0" style="stop-color:#F5ED60"/>
		<stop  offset="1" style="stop-color:#F7EF74"/>
	</linearGradient>
	<polygon fill="url(#SVGID_23_)" points="788.412,167.469 771.576,202.708 731.981,186.015 804.681,53.98 822.233,149.494 
		899.189,94.06 862.227,240.924 823.773,224.713 834.821,187.445 795.853,218.043 	"/>
	<linearGradient id="SVGID_24_" gradientUnits="userSpaceOnUse" x1="843.8213" y1="83.8872" x2="797.2321" y2="211.89">
		<stop  offset="0" style="stop-color:#68120C"/>
		<stop  offset="1" style="stop-color:#D83020"/>
	</linearGradient>
	<polygon fill="url(#SVGID_24_)" points="768.575,196.291 738.426,183.581 801.751,68.574 818.203,158.111 890.488,106.041 
		858.258,234.101 829.233,221.864 843.446,173.915 798.956,208.849 790.391,150.63 	"/>
	<g>
		<linearGradient id="SVGID_25_" gradientUnits="userSpaceOnUse" x1="843.4883" y1="85.2656" x2="797.5801" y2="211.3973">
			<stop  offset="0" style="stop-color:#771915"/>
			<stop  offset="1" style="stop-color:#EE3524"/>
		</linearGradient>
		<polygon fill="url(#SVGID_25_)" points="829.994,221.577 844.527,172.553 799.48,207.923 790.801,148.935 768.485,195.645 
			739.288,183.336 801.667,70.044 818.009,158.979 889.824,107.248 858.07,233.414 		"/>
	</g>
</g>
<g id="A_1_">
	<polygon fill="#C9AD2E" points="873.438,251.812 860.891,258.57 976.034,156.647 989.938,149.293 	"/>
	<polygon fill="#D1B935" points="909.617,274.397 873.438,251.812 860.891,258.57 895.713,280.356 	"/>
	<polygon fill="#C9AD2E" points="918.62,265.733 917.729,286.582 903.824,292.54 904.199,276.718 909.617,274.397 	"/>
	<polygon fill="#C9AD2E" points="933.418,275.704 931.389,287.995 917.484,293.953 917.729,286.582 	"/>
	<polygon fill="#D1B935" points="952.208,315.634 917.484,293.953 931.389,287.995 966.995,310.226 	"/>
	<polygon fill="#C9AD2E" points="933.279,245.094 945.773,233.184 942.558,250.894 	"/>
	<linearGradient id="SVGID_26_" gradientUnits="userSpaceOnUse" x1="994.6855" y1="152.0332" x2="917.1853" y2="286.2675">
		<stop  offset="0" style="stop-color:#F5ED60"/>
		<stop  offset="1" style="stop-color:#F7EF74"/>
	</linearGradient>
	<path fill="url(#SVGID_26_)" d="M966.995,310.226l-35.606-22.23l2.029-12.291l-15.689,10.878l0.892-20.849l-9.003,8.664
		l-36.18-22.586l116.501-102.519L966.995,310.226z M933.279,245.094l9.278,5.8l3.216-17.71L933.279,245.094z"/>
	<linearGradient id="SVGID_27_" gradientUnits="userSpaceOnUse" x1="987.2578" y1="164.29" x2="921.6138" y2="277.9889">
		<stop  offset="0" style="stop-color:#68120C"/>
		<stop  offset="1" style="stop-color:#D83020"/>
	</linearGradient>
	<path fill="url(#SVGID_27_)" d="M881.728,251.131l101.396-89.228l-19.968,140.07l-26.329-16.438l3.399-20.595l-17.109,11.861
		l0.994-23.244l-15.146,14.577L881.728,251.131z M946.136,258.987l7.249-39.918l-28.161,26.845L946.136,258.987z"/>
	<g>
		<linearGradient id="SVGID_28_" gradientUnits="userSpaceOnUse" x1="986.5098" y1="165.5234" x2="921.8501" y2="277.5173">
			<stop  offset="0" style="stop-color:#771915"/>
			<stop  offset="1" style="stop-color:#EE3524"/>
		</linearGradient>
		<path fill="url(#SVGID_28_)" d="M937.375,285.288l3.537-21.432l-17.252,11.961l1.004-23.485l-15.765,15.172l-26.337-16.441
			l99.875-87.89l-19.668,137.97L937.375,285.288z M924.412,245.997l22.084,13.805l7.655-42.154L924.412,245.997z"/>
	</g>
</g>
</svg>